# xmcd
#
# Track frame offsets:
#	151
#	15866
#	26839
#	42114
#	55697
#	69314
#	82729
#	96516
#	111035
#	128416
#	145779
#	162178
#	171685
#	181070
#	197299
#	209328
#
# Disc length: 2915 seconds
#
# Revision: 1
# Processed by: cddbd v1.5.1PL2 Copyright (c) Steve Scherf et al.
# Submitted via: audiograbber 1.83.01
#
DISCID=c50b6110
DTITLE=Verschiedene - Tex Mex - Volume 3
DYEAR=1999
DGENRE=
TTITLE0=Steve Jordan - Flor De Mexico
TTITLE1=Henri Zimmerle - Polly Wants A Cracker
TTITLE2=Eva Ybarra - Pobre Palomita
TTITLE3=Grupo Coahuila - Hey Jude
TTITLE4=Rene Joslin - Amor, Amor
TTITLE5=Potencia - Sueno Contigo
TTITLE6=Mingo Saldivar - Turn Back The Clock
TTITLE7=Los Cacharros - Dados Cargados
TTITLE8=Los Cacharros - El Corrido Del Canoso
TTITLE9=Los Agues - Baila Con Ritmo
TTITLE10=Flaco Jimenez - Indita Moi
TTITLE11=Freddy Fender - No Me Culpes
TTITLE12=Rudy Davila - Pidiendole Al Cielo
TTITLE13=Jerry and The Ruf-Nex - Country Saloon
TTITLE14=Los Dos Gilbertos - Jack and Jack
TTITLE15=Caballeros Del Norte - Mira Ma Prietita
EXTD=
EXTT0=
EXTT1=
EXTT2=
EXTT3=
EXTT4=
EXTT5=
EXTT6=
EXTT7=
EXTT8=
EXTT9=
EXTT10=
EXTT11=
EXTT12=
EXTT13=
EXTT14=
EXTT15=
PLAYORDER=
